<svg id="visual" viewBox="0 0 9000 450" width="9000" height="450" xmlns="http://www.w3.org/2000/svg" xmlns:xlink="http://www.w3.org/1999/xlink" version="1.1"><rect x="0" y="0" width="9000" height="450" fill="#000514"></rect><path d="M0 245L214.3 235.2C428.7 225.3 857.3 205.7 1285.8 193.2C1714.3 180.7 2142.7 175.3 2571.2 186.7C2999.7 198 3428.3 226 3857 247C4285.7 268 4714.3 282 5143 279.7C5571.7 277.3 6000.3 258.7 6428.8 258.7C6857.3 258.7 7285.7 277.3 7714.2 276.7C8142.7 276 8571.3 256 8785.7 246L9000 236L9000 451L8785.7 451C8571.3 451 8142.7 451 7714.2 451C7285.7 451 6857.3 451 6428.8 451C6000.3 451 5571.7 451 5143 451C4714.3 451 4285.7 451 3857 451C3428.3 451 2999.7 451 2571.2 451C2142.7 451 1714.3 451 1285.8 451C857.3 451 428.7 451 214.3 451L0 451Z" fill="#4d00a0" stroke-linecap="round" stroke-linejoin="miter"></path></svg>