<svg id="visual" viewBox="0 0 900 300" width="900" height="300" xmlns="http://www.w3.org/2000/svg" xmlns:xlink="http://www.w3.org/1999/xlink" version="1.1"><path d="M0 176L21.5 172.5C43 169 86 162 128.8 159.3C171.7 156.7 214.3 158.3 257.2 162.5C300 166.7 343 173.3 385.8 177.3C428.7 181.3 471.3 182.7 514.2 181.5C557 180.3 600 176.7 642.8 175.7C685.7 174.7 728.3 176.3 771.2 178.2C814 180 857 182 878.5 183L900 184L900 301L878.5 301C857 301 814 301 771.2 301C728.3 301 685.7 301 642.8 301C600 301 557 301 514.2 301C471.3 301 428.7 301 385.8 301C343 301 300 301 257.2 301C214.3 301 171.7 301 128.8 301C86 301 43 301 21.5 301L0 301Z" fill="#fab469"></path><path d="M0 185L21.5 185.5C43 186 86 187 128.8 187.3C171.7 187.7 214.3 187.3 257.2 188.7C300 190 343 193 385.8 190.3C428.7 187.7 471.3 179.3 514.2 179.3C557 179.3 600 187.7 642.8 188.8C685.7 190 728.3 184 771.2 183.3C814 182.7 857 187.3 878.5 189.7L900 192L900 301L878.5 301C857 301 814 301 771.2 301C728.3 301 685.7 301 642.8 301C600 301 557 301 514.2 301C471.3 301 428.7 301 385.8 301C343 301 300 301 257.2 301C214.3 301 171.7 301 128.8 301C86 301 43 301 21.5 301L0 301Z" fill="#f8a362"></path><path d="M0 209L21.5 205.3C43 201.7 86 194.3 128.8 193.8C171.7 193.3 214.3 199.7 257.2 203.8C300 208 343 210 385.8 207.8C428.7 205.7 471.3 199.3 514.2 195C557 190.7 600 188.3 642.8 188.8C685.7 189.3 728.3 192.7 771.2 193.5C814 194.3 857 192.7 878.5 191.8L900 191L900 301L878.5 301C857 301 814 301 771.2 301C728.3 301 685.7 301 642.8 301C600 301 557 301 514.2 301C471.3 301 428.7 301 385.8 301C343 301 300 301 257.2 301C214.3 301 171.7 301 128.8 301C86 301 43 301 21.5 301L0 301Z" fill="#f5915d"></path><path d="M0 205L21.5 205.7C43 206.3 86 207.7 128.8 208.3C171.7 209 214.3 209 257.2 207.2C300 205.3 343 201.7 385.8 202.8C428.7 204 471.3 210 514.2 213.8C557 217.7 600 219.3 642.8 217.2C685.7 215 728.3 209 771.2 205.3C814 201.7 857 200.3 878.5 199.7L900 199L900 301L878.5 301C857 301 814 301 771.2 301C728.3 301 685.7 301 642.8 301C600 301 557 301 514.2 301C471.3 301 428.7 301 385.8 301C343 301 300 301 257.2 301C214.3 301 171.7 301 128.8 301C86 301 43 301 21.5 301L0 301Z" fill="#f1805b"></path><path d="M0 237L21.5 237C43 237 86 237 128.8 233.8C171.7 230.7 214.3 224.3 257.2 221C300 217.7 343 217.3 385.8 217.3C428.7 217.3 471.3 217.7 514.2 220.5C557 223.3 600 228.7 642.8 232C685.7 235.3 728.3 236.7 771.2 236.5C814 236.3 857 234.7 878.5 233.8L900 233L900 301L878.5 301C857 301 814 301 771.2 301C728.3 301 685.7 301 642.8 301C600 301 557 301 514.2 301C471.3 301 428.7 301 385.8 301C343 301 300 301 257.2 301C214.3 301 171.7 301 128.8 301C86 301 43 301 21.5 301L0 301Z" fill="#ec6e5b"></path><path d="M0 255L21.5 252.3C43 249.7 86 244.3 128.8 242.2C171.7 240 214.3 241 257.2 242.7C300 244.3 343 246.7 385.8 245.5C428.7 244.3 471.3 239.7 514.2 238.2C557 236.7 600 238.3 642.8 241.2C685.7 244 728.3 248 771.2 246.8C814 245.7 857 239.3 878.5 236.2L900 233L900 301L878.5 301C857 301 814 301 771.2 301C728.3 301 685.7 301 642.8 301C600 301 557 301 514.2 301C471.3 301 428.7 301 385.8 301C343 301 300 301 257.2 301C214.3 301 171.7 301 128.8 301C86 301 43 301 21.5 301L0 301Z" fill="#e55c5d"></path><path d="M0 252L21.5 250.8C43 249.7 86 247.3 128.8 248.2C171.7 249 214.3 253 257.2 253.5C300 254 343 251 385.8 249.5C428.7 248 471.3 248 514.2 249C557 250 600 252 642.8 254C685.7 256 728.3 258 771.2 259.3C814 260.7 857 261.3 878.5 261.7L900 262L900 301L878.5 301C857 301 814 301 771.2 301C728.3 301 685.7 301 642.8 301C600 301 557 301 514.2 301C471.3 301 428.7 301 385.8 301C343 301 300 301 257.2 301C214.3 301 171.7 301 128.8 301C86 301 43 301 21.5 301L0 301Z" fill="#dd4a5f"></path><path d="M0 264L21.5 265C43 266 86 268 128.8 268.3C171.7 268.7 214.3 267.3 257.2 266.8C300 266.3 343 266.7 385.8 267C428.7 267.3 471.3 267.7 514.2 267.3C557 267 600 266 642.8 265.2C685.7 264.3 728.3 263.7 771.2 263C814 262.3 857 261.7 878.5 261.3L900 261L900 301L878.5 301C857 301 814 301 771.2 301C728.3 301 685.7 301 642.8 301C600 301 557 301 514.2 301C471.3 301 428.7 301 385.8 301C343 301 300 301 257.2 301C214.3 301 171.7 301 128.8 301C86 301 43 301 21.5 301L0 301Z" fill="#d23763"></path><path d="M0 279L21.5 280.7C43 282.3 86 285.7 128.8 285C171.7 284.3 214.3 279.7 257.2 277C300 274.3 343 273.7 385.8 276.3C428.7 279 471.3 285 514.2 286.2C557 287.3 600 283.7 642.8 280.7C685.7 277.7 728.3 275.3 771.2 275.8C814 276.3 857 279.7 878.5 281.3L900 283L900 301L878.5 301C857 301 814 301 771.2 301C728.3 301 685.7 301 642.8 301C600 301 557 301 514.2 301C471.3 301 428.7 301 385.8 301C343 301 300 301 257.2 301C214.3 301 171.7 301 128.8 301C86 301 43 301 21.5 301L0 301Z" fill="#c62368"></path></svg>