<svg id="visual" viewBox="0 0 900 300" width="900" height="300" xmlns="http://www.w3.org/2000/svg" xmlns:xlink="http://www.w3.org/1999/xlink" version="1.1"><path d="M0 112L21.5 114C43 116 86 120 128.8 121.5C171.7 123 214.3 122 257.2 120.5C300 119 343 117 385.8 120C428.7 123 471.3 131 514.2 132.3C557 133.7 600 128.3 642.8 126.2C685.7 124 728.3 125 771.2 123.5C814 122 857 118 878.5 116L900 114L900 0L878.5 0C857 0 814 0 771.2 0C728.3 0 685.7 0 642.8 0C600 0 557 0 514.2 0C471.3 0 428.7 0 385.8 0C343 0 300 0 257.2 0C214.3 0 171.7 0 128.8 0C86 0 43 0 21.5 0L0 0Z" fill="#fab469"></path><path d="M0 117L21.5 114C43 111 86 105 128.8 104.5C171.7 104 214.3 109 257.2 113.7C300 118.3 343 122.7 385.8 124.3C428.7 126 471.3 125 514.2 120.5C557 116 600 108 642.8 104.5C685.7 101 728.3 102 771.2 102.8C814 103.7 857 104.3 878.5 104.7L900 105L900 0L878.5 0C857 0 814 0 771.2 0C728.3 0 685.7 0 642.8 0C600 0 557 0 514.2 0C471.3 0 428.7 0 385.8 0C343 0 300 0 257.2 0C214.3 0 171.7 0 128.8 0C86 0 43 0 21.5 0L0 0Z" fill="#ea9764"></path><path d="M0 91L21.5 94.2C43 97.3 86 103.7 128.8 107.3C171.7 111 214.3 112 257.2 112.8C300 113.7 343 114.3 385.8 110C428.7 105.7 471.3 96.3 514.2 94.3C557 92.3 600 97.7 642.8 101.2C685.7 104.7 728.3 106.3 771.2 103.3C814 100.3 857 92.7 878.5 88.8L900 85L900 0L878.5 0C857 0 814 0 771.2 0C728.3 0 685.7 0 642.8 0C600 0 557 0 514.2 0C471.3 0 428.7 0 385.8 0C343 0 300 0 257.2 0C214.3 0 171.7 0 128.8 0C86 0 43 0 21.5 0L0 0Z" fill="#d67d60"></path><path d="M0 80L21.5 82.8C43 85.7 86 91.3 128.8 91.2C171.7 91 214.3 85 257.2 81.3C300 77.7 343 76.3 385.8 79.3C428.7 82.3 471.3 89.7 514.2 91C557 92.3 600 87.7 642.8 83.8C685.7 80 728.3 77 771.2 76C814 75 857 76 878.5 76.5L900 77L900 0L878.5 0C857 0 814 0 771.2 0C728.3 0 685.7 0 642.8 0C600 0 557 0 514.2 0C471.3 0 428.7 0 385.8 0C343 0 300 0 257.2 0C214.3 0 171.7 0 128.8 0C86 0 43 0 21.5 0L0 0Z" fill="#be655d"></path><path d="M0 81L21.5 80.7C43 80.3 86 79.7 128.8 79.7C171.7 79.7 214.3 80.3 257.2 78.2C300 76 343 71 385.8 70.5C428.7 70 471.3 74 514.2 76.2C557 78.3 600 78.7 642.8 75.8C685.7 73 728.3 67 771.2 64.7C814 62.3 857 63.7 878.5 64.3L900 65L900 0L878.5 0C857 0 814 0 771.2 0C728.3 0 685.7 0 642.8 0C600 0 557 0 514.2 0C471.3 0 428.7 0 385.8 0C343 0 300 0 257.2 0C214.3 0 171.7 0 128.8 0C86 0 43 0 21.5 0L0 0Z" fill="#a35058"></path><path d="M0 48L21.5 50.3C43 52.7 86 57.3 128.8 60.5C171.7 63.7 214.3 65.3 257.2 62.8C300 60.3 343 53.7 385.8 51.2C428.7 48.7 471.3 50.3 514.2 53C557 55.7 600 59.3 642.8 58C685.7 56.7 728.3 50.3 771.2 51C814 51.7 857 59.3 878.5 63.2L900 67L900 0L878.5 0C857 0 814 0 771.2 0C728.3 0 685.7 0 642.8 0C600 0 557 0 514.2 0C471.3 0 428.7 0 385.8 0C343 0 300 0 257.2 0C214.3 0 171.7 0 128.8 0C86 0 43 0 21.5 0L0 0Z" fill="#863e51"></path><path d="M0 40L21.5 41.2C43 42.3 86 44.7 128.8 45.2C171.7 45.7 214.3 44.3 257.2 41.7C300 39 343 35 385.8 36.7C428.7 38.3 471.3 45.7 514.2 47.2C557 48.7 600 44.3 642.8 44C685.7 43.7 728.3 47.3 771.2 47.7C814 48 857 45 878.5 43.5L900 42L900 0L878.5 0C857 0 814 0 771.2 0C728.3 0 685.7 0 642.8 0C600 0 557 0 514.2 0C471.3 0 428.7 0 385.8 0C343 0 300 0 257.2 0C214.3 0 171.7 0 128.8 0C86 0 43 0 21.5 0L0 0Z" fill="#682e48"></path><path d="M0 27L21.5 27.5C43 28 86 29 128.8 29.3C171.7 29.7 214.3 29.3 257.2 27C300 24.7 343 20.3 385.8 21C428.7 21.7 471.3 27.3 514.2 29.5C557 31.7 600 30.3 642.8 31.3C685.7 32.3 728.3 35.7 771.2 35.2C814 34.7 857 30.3 878.5 28.2L900 26L900 0L878.5 0C857 0 814 0 771.2 0C728.3 0 685.7 0 642.8 0C600 0 557 0 514.2 0C471.3 0 428.7 0 385.8 0C343 0 300 0 257.2 0C214.3 0 171.7 0 128.8 0C86 0 43 0 21.5 0L0 0Z" fill="#4a203c"></path><path d="M0 19L21.5 17C43 15 86 11 128.8 9.3C171.7 7.7 214.3 8.3 257.2 10.2C300 12 343 15 385.8 17.5C428.7 20 471.3 22 514.2 22.2C557 22.3 600 20.7 642.8 17.7C685.7 14.7 728.3 10.3 771.2 8.7C814 7 857 8 878.5 8.5L900 9L900 0L878.5 0C857 0 814 0 771.2 0C728.3 0 685.7 0 642.8 0C600 0 557 0 514.2 0C471.3 0 428.7 0 385.8 0C343 0 300 0 257.2 0C214.3 0 171.7 0 128.8 0C86 0 43 0 21.5 0L0 0Z" fill="#2e132e"></path></svg>